<mxfile host="app.diagrams.net" modified="2022-09-15T04:10:33.142Z" agent="5.0 (Windows NT 10.0; Win64; x64) AppleWebKit/537.36 (KHTML, like Gecko) Chrome/105.0.0.0 Safari/537.36" etag="gddbpCWLDivyK7XMpzYS" version="20.3.0" type="github">
  <diagram id="kLBm4ub9ptPYxr1vE68o" name="Trang-1">
    <mxGraphModel dx="1816" dy="551" grid="1" gridSize="10" guides="1" tooltips="1" connect="1" arrows="1" fold="1" page="1" pageScale="1" pageWidth="827" pageHeight="1169" math="0" shadow="0">
      <root>
        <mxCell id="0" />
        <mxCell id="1" parent="0" />
        <mxCell id="CO2k6fpoZU8UBYYneDxK-1" value="Stations" style="swimlane;fontStyle=0;childLayout=stackLayout;horizontal=1;startSize=26;fillColor=none;horizontalStack=0;resizeParent=1;resizeParentMax=0;resizeLast=0;collapsible=1;marginBottom=0;rounded=1;" vertex="1" parent="1">
          <mxGeometry x="40" y="40" width="140" height="130" as="geometry" />
        </mxCell>
        <mxCell id="CO2k6fpoZU8UBYYneDxK-2" value="- id" style="text;strokeColor=none;fillColor=none;align=left;verticalAlign=top;spacingLeft=4;spacingRight=4;overflow=hidden;rotatable=0;points=[[0,0.5],[1,0.5]];portConstraint=eastwest;rounded=1;" vertex="1" parent="CO2k6fpoZU8UBYYneDxK-1">
          <mxGeometry y="26" width="140" height="26" as="geometry" />
        </mxCell>
        <mxCell id="CO2k6fpoZU8UBYYneDxK-3" value="-Â  name" style="text;strokeColor=none;fillColor=none;align=left;verticalAlign=top;spacingLeft=4;spacingRight=4;overflow=hidden;rotatable=0;points=[[0,0.5],[1,0.5]];portConstraint=eastwest;rounded=1;" vertex="1" parent="CO2k6fpoZU8UBYYneDxK-1">
          <mxGeometry y="52" width="140" height="26" as="geometry" />
        </mxCell>
        <mxCell id="CO2k6fpoZU8UBYYneDxK-4" value="- address" style="text;strokeColor=none;fillColor=none;align=left;verticalAlign=top;spacingLeft=4;spacingRight=4;overflow=hidden;rotatable=0;points=[[0,0.5],[1,0.5]];portConstraint=eastwest;rounded=1;" vertex="1" parent="CO2k6fpoZU8UBYYneDxK-1">
          <mxGeometry y="78" width="140" height="26" as="geometry" />
        </mxCell>
        <mxCell id="CO2k6fpoZU8UBYYneDxK-5" value="- province" style="text;strokeColor=none;fillColor=none;align=left;verticalAlign=top;spacingLeft=4;spacingRight=4;overflow=hidden;rotatable=0;points=[[0,0.5],[1,0.5]];portConstraint=eastwest;rounded=1;" vertex="1" parent="CO2k6fpoZU8UBYYneDxK-1">
          <mxGeometry y="104" width="140" height="26" as="geometry" />
        </mxCell>
        <mxCell id="CO2k6fpoZU8UBYYneDxK-6" value="Trips" style="swimlane;fontStyle=0;childLayout=stackLayout;horizontal=1;startSize=26;fillColor=none;horizontalStack=0;resizeParent=1;resizeParentMax=0;resizeLast=0;collapsible=1;marginBottom=0;rounded=1;" vertex="1" parent="1">
          <mxGeometry x="300" y="40" width="140" height="156" as="geometry" />
        </mxCell>
        <mxCell id="CO2k6fpoZU8UBYYneDxK-7" value="- id" style="text;strokeColor=none;fillColor=none;align=left;verticalAlign=top;spacingLeft=4;spacingRight=4;overflow=hidden;rotatable=0;points=[[0,0.5],[1,0.5]];portConstraint=eastwest;rounded=1;" vertex="1" parent="CO2k6fpoZU8UBYYneDxK-6">
          <mxGeometry y="26" width="140" height="26" as="geometry" />
        </mxCell>
        <mxCell id="CO2k6fpoZU8UBYYneDxK-8" value="- fromStation" style="text;strokeColor=none;fillColor=none;align=left;verticalAlign=top;spacingLeft=4;spacingRight=4;overflow=hidden;rotatable=0;points=[[0,0.5],[1,0.5]];portConstraint=eastwest;rounded=1;" vertex="1" parent="CO2k6fpoZU8UBYYneDxK-6">
          <mxGeometry y="52" width="140" height="26" as="geometry" />
        </mxCell>
        <mxCell id="CO2k6fpoZU8UBYYneDxK-9" value="- toStation" style="text;strokeColor=none;fillColor=none;align=left;verticalAlign=top;spacingLeft=4;spacingRight=4;overflow=hidden;rotatable=0;points=[[0,0.5],[1,0.5]];portConstraint=eastwest;rounded=1;" vertex="1" parent="CO2k6fpoZU8UBYYneDxK-6">
          <mxGeometry y="78" width="140" height="26" as="geometry" />
        </mxCell>
        <mxCell id="CO2k6fpoZU8UBYYneDxK-10" value="- startTime" style="text;strokeColor=none;fillColor=none;align=left;verticalAlign=top;spacingLeft=4;spacingRight=4;overflow=hidden;rotatable=0;points=[[0,0.5],[1,0.5]];portConstraint=eastwest;rounded=1;" vertex="1" parent="CO2k6fpoZU8UBYYneDxK-6">
          <mxGeometry y="104" width="140" height="26" as="geometry" />
        </mxCell>
        <mxCell id="CO2k6fpoZU8UBYYneDxK-11" value="- price" style="text;strokeColor=none;fillColor=none;align=left;verticalAlign=top;spacingLeft=4;spacingRight=4;overflow=hidden;rotatable=0;points=[[0,0.5],[1,0.5]];portConstraint=eastwest;rounded=1;" vertex="1" parent="CO2k6fpoZU8UBYYneDxK-6">
          <mxGeometry y="130" width="140" height="26" as="geometry" />
        </mxCell>
        <mxCell id="CO2k6fpoZU8UBYYneDxK-12" value="PassengerCarCompanies" style="swimlane;fontStyle=0;childLayout=stackLayout;horizontal=1;startSize=26;fillColor=none;horizontalStack=0;resizeParent=1;resizeParentMax=0;resizeLast=0;collapsible=1;marginBottom=0;rounded=1;" vertex="1" parent="1">
          <mxGeometry x="570" y="40" width="200" height="156" as="geometry" />
        </mxCell>
        <mxCell id="CO2k6fpoZU8UBYYneDxK-13" value="- id" style="text;strokeColor=none;fillColor=none;align=left;verticalAlign=top;spacingLeft=4;spacingRight=4;overflow=hidden;rotatable=0;points=[[0,0.5],[1,0.5]];portConstraint=eastwest;rounded=1;" vertex="1" parent="CO2k6fpoZU8UBYYneDxK-12">
          <mxGeometry y="26" width="200" height="26" as="geometry" />
        </mxCell>
        <mxCell id="CO2k6fpoZU8UBYYneDxK-14" value="- name" style="text;strokeColor=none;fillColor=none;align=left;verticalAlign=top;spacingLeft=4;spacingRight=4;overflow=hidden;rotatable=0;points=[[0,0.5],[1,0.5]];portConstraint=eastwest;rounded=1;" vertex="1" parent="CO2k6fpoZU8UBYYneDxK-12">
          <mxGeometry y="52" width="200" height="26" as="geometry" />
        </mxCell>
        <mxCell id="CO2k6fpoZU8UBYYneDxK-15" value="- image" style="text;strokeColor=none;fillColor=none;align=left;verticalAlign=top;spacingLeft=4;spacingRight=4;overflow=hidden;rotatable=0;points=[[0,0.5],[1,0.5]];portConstraint=eastwest;rounded=1;" vertex="1" parent="CO2k6fpoZU8UBYYneDxK-12">
          <mxGeometry y="78" width="200" height="26" as="geometry" />
        </mxCell>
        <mxCell id="CO2k6fpoZU8UBYYneDxK-16" value="- description" style="text;strokeColor=none;fillColor=none;align=left;verticalAlign=top;spacingLeft=4;spacingRight=4;overflow=hidden;rotatable=0;points=[[0,0.5],[1,0.5]];portConstraint=eastwest;rounded=1;" vertex="1" parent="CO2k6fpoZU8UBYYneDxK-12">
          <mxGeometry y="104" width="200" height="26" as="geometry" />
        </mxCell>
        <mxCell id="CO2k6fpoZU8UBYYneDxK-53" value="- tripId" style="text;strokeColor=none;fillColor=none;align=left;verticalAlign=top;spacingLeft=4;spacingRight=4;overflow=hidden;rotatable=0;points=[[0,0.5],[1,0.5]];portConstraint=eastwest;rounded=1;" vertex="1" parent="CO2k6fpoZU8UBYYneDxK-12">
          <mxGeometry y="130" width="200" height="26" as="geometry" />
        </mxCell>
        <mxCell id="CO2k6fpoZU8UBYYneDxK-17" value="Vehicles" style="swimlane;fontStyle=0;childLayout=stackLayout;horizontal=1;startSize=26;fillColor=none;horizontalStack=0;resizeParent=1;resizeParentMax=0;resizeLast=0;collapsible=1;marginBottom=0;rounded=1;" vertex="1" parent="1">
          <mxGeometry x="600" y="270" width="140" height="104" as="geometry" />
        </mxCell>
        <mxCell id="CO2k6fpoZU8UBYYneDxK-18" value="- id" style="text;strokeColor=none;fillColor=none;align=left;verticalAlign=top;spacingLeft=4;spacingRight=4;overflow=hidden;rotatable=0;points=[[0,0.5],[1,0.5]];portConstraint=eastwest;rounded=1;" vertex="1" parent="CO2k6fpoZU8UBYYneDxK-17">
          <mxGeometry y="26" width="140" height="26" as="geometry" />
        </mxCell>
        <mxCell id="CO2k6fpoZU8UBYYneDxK-19" value="- name" style="text;strokeColor=none;fillColor=none;align=left;verticalAlign=top;spacingLeft=4;spacingRight=4;overflow=hidden;rotatable=0;points=[[0,0.5],[1,0.5]];portConstraint=eastwest;rounded=1;" vertex="1" parent="CO2k6fpoZU8UBYYneDxK-17">
          <mxGeometry y="52" width="140" height="26" as="geometry" />
        </mxCell>
        <mxCell id="CO2k6fpoZU8UBYYneDxK-62" value="- pccId" style="text;strokeColor=none;fillColor=none;align=left;verticalAlign=top;spacingLeft=4;spacingRight=4;overflow=hidden;rotatable=0;points=[[0,0.5],[1,0.5]];portConstraint=eastwest;rounded=1;" vertex="1" parent="CO2k6fpoZU8UBYYneDxK-17">
          <mxGeometry y="78" width="140" height="26" as="geometry" />
        </mxCell>
        <mxCell id="CO2k6fpoZU8UBYYneDxK-21" value="Users" style="swimlane;fontStyle=0;childLayout=stackLayout;horizontal=1;startSize=26;fillColor=none;horizontalStack=0;resizeParent=1;resizeParentMax=0;resizeLast=0;collapsible=1;marginBottom=0;rounded=1;" vertex="1" parent="1">
          <mxGeometry x="40" y="260" width="140" height="156" as="geometry" />
        </mxCell>
        <mxCell id="CO2k6fpoZU8UBYYneDxK-22" value="- id" style="text;strokeColor=none;fillColor=none;align=left;verticalAlign=top;spacingLeft=4;spacingRight=4;overflow=hidden;rotatable=0;points=[[0,0.5],[1,0.5]];portConstraint=eastwest;rounded=1;" vertex="1" parent="CO2k6fpoZU8UBYYneDxK-21">
          <mxGeometry y="26" width="140" height="26" as="geometry" />
        </mxCell>
        <mxCell id="CO2k6fpoZU8UBYYneDxK-23" value="- name" style="text;strokeColor=none;fillColor=none;align=left;verticalAlign=top;spacingLeft=4;spacingRight=4;overflow=hidden;rotatable=0;points=[[0,0.5],[1,0.5]];portConstraint=eastwest;rounded=1;" vertex="1" parent="CO2k6fpoZU8UBYYneDxK-21">
          <mxGeometry y="52" width="140" height="26" as="geometry" />
        </mxCell>
        <mxCell id="CO2k6fpoZU8UBYYneDxK-24" value="-email" style="text;strokeColor=none;fillColor=none;align=left;verticalAlign=top;spacingLeft=4;spacingRight=4;overflow=hidden;rotatable=0;points=[[0,0.5],[1,0.5]];portConstraint=eastwest;rounded=1;" vertex="1" parent="CO2k6fpoZU8UBYYneDxK-21">
          <mxGeometry y="78" width="140" height="26" as="geometry" />
        </mxCell>
        <mxCell id="CO2k6fpoZU8UBYYneDxK-25" value="- numberPhone" style="text;strokeColor=none;fillColor=none;align=left;verticalAlign=top;spacingLeft=4;spacingRight=4;overflow=hidden;rotatable=0;points=[[0,0.5],[1,0.5]];portConstraint=eastwest;rounded=1;" vertex="1" parent="CO2k6fpoZU8UBYYneDxK-21">
          <mxGeometry y="104" width="140" height="26" as="geometry" />
        </mxCell>
        <mxCell id="CO2k6fpoZU8UBYYneDxK-26" value="- password" style="text;strokeColor=none;fillColor=none;align=left;verticalAlign=top;spacingLeft=4;spacingRight=4;overflow=hidden;rotatable=0;points=[[0,0.5],[1,0.5]];portConstraint=eastwest;rounded=1;" vertex="1" parent="CO2k6fpoZU8UBYYneDxK-21">
          <mxGeometry y="130" width="140" height="26" as="geometry" />
        </mxCell>
        <mxCell id="CO2k6fpoZU8UBYYneDxK-28" value="Seats" style="swimlane;fontStyle=0;childLayout=stackLayout;horizontal=1;startSize=26;fillColor=none;horizontalStack=0;resizeParent=1;resizeParentMax=0;resizeLast=0;collapsible=1;marginBottom=0;rounded=1;" vertex="1" parent="1">
          <mxGeometry x="440" y="440" width="140" height="130" as="geometry" />
        </mxCell>
        <mxCell id="CO2k6fpoZU8UBYYneDxK-29" value="- id" style="text;strokeColor=none;fillColor=none;align=left;verticalAlign=top;spacingLeft=4;spacingRight=4;overflow=hidden;rotatable=0;points=[[0,0.5],[1,0.5]];portConstraint=eastwest;rounded=1;" vertex="1" parent="CO2k6fpoZU8UBYYneDxK-28">
          <mxGeometry y="26" width="140" height="26" as="geometry" />
        </mxCell>
        <mxCell id="CO2k6fpoZU8UBYYneDxK-30" value="- name" style="text;strokeColor=none;fillColor=none;align=left;verticalAlign=top;spacingLeft=4;spacingRight=4;overflow=hidden;rotatable=0;points=[[0,0.5],[1,0.5]];portConstraint=eastwest;rounded=1;" vertex="1" parent="CO2k6fpoZU8UBYYneDxK-28">
          <mxGeometry y="52" width="140" height="26" as="geometry" />
        </mxCell>
        <mxCell id="CO2k6fpoZU8UBYYneDxK-31" value="- status" style="text;strokeColor=none;fillColor=none;align=left;verticalAlign=top;spacingLeft=4;spacingRight=4;overflow=hidden;rotatable=0;points=[[0,0.5],[1,0.5]];portConstraint=eastwest;rounded=1;" vertex="1" parent="CO2k6fpoZU8UBYYneDxK-28">
          <mxGeometry y="78" width="140" height="26" as="geometry" />
        </mxCell>
        <mxCell id="CO2k6fpoZU8UBYYneDxK-60" value="- vehicleId" style="text;strokeColor=none;fillColor=none;align=left;verticalAlign=top;spacingLeft=4;spacingRight=4;overflow=hidden;rotatable=0;points=[[0,0.5],[1,0.5]];portConstraint=eastwest;rounded=1;" vertex="1" parent="CO2k6fpoZU8UBYYneDxK-28">
          <mxGeometry y="104" width="140" height="26" as="geometry" />
        </mxCell>
        <mxCell id="CO2k6fpoZU8UBYYneDxK-32" value="Tickets" style="swimlane;fontStyle=0;childLayout=stackLayout;horizontal=1;startSize=26;fillColor=none;horizontalStack=0;resizeParent=1;resizeParentMax=0;resizeLast=0;collapsible=1;marginBottom=0;rounded=1;" vertex="1" parent="1">
          <mxGeometry x="300" y="260" width="140" height="104" as="geometry" />
        </mxCell>
        <mxCell id="CO2k6fpoZU8UBYYneDxK-39" value="- id" style="text;strokeColor=none;fillColor=none;align=left;verticalAlign=top;spacingLeft=4;spacingRight=4;overflow=hidden;rotatable=0;points=[[0,0.5],[1,0.5]];portConstraint=eastwest;rounded=1;" vertex="1" parent="CO2k6fpoZU8UBYYneDxK-32">
          <mxGeometry y="26" width="140" height="26" as="geometry" />
        </mxCell>
        <mxCell id="CO2k6fpoZU8UBYYneDxK-35" value="- tripId" style="text;strokeColor=none;fillColor=none;align=left;verticalAlign=top;spacingLeft=4;spacingRight=4;overflow=hidden;rotatable=0;points=[[0,0.5],[1,0.5]];portConstraint=eastwest;rounded=1;" vertex="1" parent="CO2k6fpoZU8UBYYneDxK-32">
          <mxGeometry y="52" width="140" height="26" as="geometry" />
        </mxCell>
        <mxCell id="CO2k6fpoZU8UBYYneDxK-34" value="- userId" style="text;strokeColor=none;fillColor=none;align=left;verticalAlign=top;spacingLeft=4;spacingRight=4;overflow=hidden;rotatable=0;points=[[0,0.5],[1,0.5]];portConstraint=eastwest;rounded=1;" vertex="1" parent="CO2k6fpoZU8UBYYneDxK-32">
          <mxGeometry y="78" width="140" height="26" as="geometry" />
        </mxCell>
        <mxCell id="CO2k6fpoZU8UBYYneDxK-36" value="" style="endArrow=open;html=1;endSize=12;startArrow=diamondThin;startSize=14;startFill=0;edgeStyle=orthogonalEdgeStyle;rounded=1;entryX=0;entryY=0.5;entryDx=0;entryDy=0;exitX=0;exitY=0.5;exitDx=0;exitDy=0;" edge="1" parent="1" source="CO2k6fpoZU8UBYYneDxK-34">
          <mxGeometry relative="1" as="geometry">
            <mxPoint x="270" y="380" as="sourcePoint" />
            <mxPoint x="40" y="299" as="targetPoint" />
            <Array as="points">
              <mxPoint x="250" y="350" />
              <mxPoint x="250" y="450" />
              <mxPoint x="10" y="450" />
              <mxPoint x="10" y="299" />
            </Array>
          </mxGeometry>
        </mxCell>
        <mxCell id="CO2k6fpoZU8UBYYneDxK-37" value="0..n" style="edgeLabel;resizable=0;html=1;align=left;verticalAlign=top;rounded=1;" connectable="0" vertex="1" parent="CO2k6fpoZU8UBYYneDxK-36">
          <mxGeometry x="-1" relative="1" as="geometry">
            <mxPoint x="-30" as="offset" />
          </mxGeometry>
        </mxCell>
        <mxCell id="CO2k6fpoZU8UBYYneDxK-38" value="1" style="edgeLabel;resizable=0;html=1;align=right;verticalAlign=top;rounded=1;" connectable="0" vertex="1" parent="CO2k6fpoZU8UBYYneDxK-36">
          <mxGeometry x="1" relative="1" as="geometry">
            <mxPoint x="-10" as="offset" />
          </mxGeometry>
        </mxCell>
        <mxCell id="CO2k6fpoZU8UBYYneDxK-40" value="" style="endArrow=open;html=1;endSize=12;startArrow=diamondThin;startSize=14;startFill=0;edgeStyle=orthogonalEdgeStyle;rounded=1;exitX=0;exitY=0.5;exitDx=0;exitDy=0;entryX=0;entryY=0.5;entryDx=0;entryDy=0;" edge="1" parent="1" source="CO2k6fpoZU8UBYYneDxK-35" target="CO2k6fpoZU8UBYYneDxK-7">
          <mxGeometry relative="1" as="geometry">
            <mxPoint x="240" y="300" as="sourcePoint" />
            <mxPoint x="260" y="80" as="targetPoint" />
            <Array as="points">
              <mxPoint x="250" y="325" />
              <mxPoint x="250" y="79" />
            </Array>
          </mxGeometry>
        </mxCell>
        <mxCell id="CO2k6fpoZU8UBYYneDxK-41" value="0..n" style="edgeLabel;resizable=0;html=1;align=left;verticalAlign=top;rounded=1;" connectable="0" vertex="1" parent="CO2k6fpoZU8UBYYneDxK-40">
          <mxGeometry x="-1" relative="1" as="geometry">
            <mxPoint x="-30" as="offset" />
          </mxGeometry>
        </mxCell>
        <mxCell id="CO2k6fpoZU8UBYYneDxK-42" value="1" style="edgeLabel;resizable=0;html=1;align=right;verticalAlign=top;rounded=1;" connectable="0" vertex="1" parent="CO2k6fpoZU8UBYYneDxK-40">
          <mxGeometry x="1" relative="1" as="geometry">
            <mxPoint x="-10" as="offset" />
          </mxGeometry>
        </mxCell>
        <mxCell id="CO2k6fpoZU8UBYYneDxK-43" value="" style="endArrow=open;html=1;endSize=12;startArrow=diamondThin;startSize=14;startFill=0;edgeStyle=orthogonalEdgeStyle;rounded=1;exitX=0;exitY=0.5;exitDx=0;exitDy=0;" edge="1" parent="1" source="CO2k6fpoZU8UBYYneDxK-8">
          <mxGeometry relative="1" as="geometry">
            <mxPoint x="270" y="110" as="sourcePoint" />
            <mxPoint x="40" y="80" as="targetPoint" />
            <Array as="points">
              <mxPoint x="230" y="105" />
              <mxPoint x="230" y="220" />
              <mxPoint x="10" y="220" />
              <mxPoint x="10" y="80" />
              <mxPoint x="40" y="80" />
            </Array>
          </mxGeometry>
        </mxCell>
        <mxCell id="CO2k6fpoZU8UBYYneDxK-44" value="0..n" style="edgeLabel;resizable=0;html=1;align=left;verticalAlign=top;rounded=1;" connectable="0" vertex="1" parent="CO2k6fpoZU8UBYYneDxK-43">
          <mxGeometry x="-1" relative="1" as="geometry">
            <mxPoint x="-30" as="offset" />
          </mxGeometry>
        </mxCell>
        <mxCell id="CO2k6fpoZU8UBYYneDxK-45" value="1" style="edgeLabel;resizable=0;html=1;align=right;verticalAlign=top;rounded=1;" connectable="0" vertex="1" parent="CO2k6fpoZU8UBYYneDxK-43">
          <mxGeometry x="1" relative="1" as="geometry">
            <mxPoint x="-10" as="offset" />
          </mxGeometry>
        </mxCell>
        <mxCell id="CO2k6fpoZU8UBYYneDxK-46" value="" style="endArrow=open;html=1;endSize=12;startArrow=diamondThin;startSize=14;startFill=0;edgeStyle=orthogonalEdgeStyle;rounded=1;" edge="1" parent="1">
          <mxGeometry relative="1" as="geometry">
            <mxPoint x="300" y="131" as="sourcePoint" />
            <mxPoint x="40" y="80" as="targetPoint" />
            <Array as="points">
              <mxPoint x="230" y="130" />
              <mxPoint x="230" y="220" />
              <mxPoint x="10" y="220" />
              <mxPoint x="10" y="80" />
            </Array>
          </mxGeometry>
        </mxCell>
        <mxCell id="CO2k6fpoZU8UBYYneDxK-47" value="0..n" style="edgeLabel;resizable=0;html=1;align=left;verticalAlign=top;rounded=1;" connectable="0" vertex="1" parent="CO2k6fpoZU8UBYYneDxK-46">
          <mxGeometry x="-1" relative="1" as="geometry">
            <mxPoint x="-30" y="-1" as="offset" />
          </mxGeometry>
        </mxCell>
        <mxCell id="CO2k6fpoZU8UBYYneDxK-48" value="1" style="edgeLabel;resizable=0;html=1;align=right;verticalAlign=top;rounded=1;" connectable="0" vertex="1" parent="CO2k6fpoZU8UBYYneDxK-46">
          <mxGeometry x="1" relative="1" as="geometry">
            <mxPoint x="-10" as="offset" />
          </mxGeometry>
        </mxCell>
        <mxCell id="CO2k6fpoZU8UBYYneDxK-50" value="" style="endArrow=open;html=1;endSize=12;startArrow=diamondThin;startSize=14;startFill=0;edgeStyle=orthogonalEdgeStyle;rounded=1;exitX=0;exitY=0.5;exitDx=0;exitDy=0;entryX=1;entryY=0.5;entryDx=0;entryDy=0;" edge="1" parent="1" source="CO2k6fpoZU8UBYYneDxK-53" target="CO2k6fpoZU8UBYYneDxK-7">
          <mxGeometry relative="1" as="geometry">
            <mxPoint x="580" y="190" as="sourcePoint" />
            <mxPoint x="470" y="90" as="targetPoint" />
            <Array as="points">
              <mxPoint x="520" y="183" />
              <mxPoint x="520" y="79" />
            </Array>
          </mxGeometry>
        </mxCell>
        <mxCell id="CO2k6fpoZU8UBYYneDxK-51" value="0..n" style="edgeLabel;resizable=0;html=1;align=left;verticalAlign=top;rounded=1;" connectable="0" vertex="1" parent="CO2k6fpoZU8UBYYneDxK-50">
          <mxGeometry x="-1" relative="1" as="geometry">
            <mxPoint x="-20" as="offset" />
          </mxGeometry>
        </mxCell>
        <mxCell id="CO2k6fpoZU8UBYYneDxK-52" value="1" style="edgeLabel;resizable=0;html=1;align=right;verticalAlign=top;rounded=1;" connectable="0" vertex="1" parent="CO2k6fpoZU8UBYYneDxK-50">
          <mxGeometry x="1" relative="1" as="geometry">
            <mxPoint x="10" as="offset" />
          </mxGeometry>
        </mxCell>
        <mxCell id="CO2k6fpoZU8UBYYneDxK-54" value="" style="endArrow=open;html=1;endSize=12;startArrow=diamondThin;startSize=14;startFill=0;edgeStyle=orthogonalEdgeStyle;rounded=1;entryX=1;entryY=0.5;entryDx=0;entryDy=0;exitX=1;exitY=0.5;exitDx=0;exitDy=0;" edge="1" parent="1" source="CO2k6fpoZU8UBYYneDxK-62" target="CO2k6fpoZU8UBYYneDxK-13">
          <mxGeometry relative="1" as="geometry">
            <mxPoint x="780" y="370" as="sourcePoint" />
            <mxPoint x="800" y="80" as="targetPoint" />
            <Array as="points">
              <mxPoint x="780" y="361" />
              <mxPoint x="810" y="360" />
              <mxPoint x="810" y="79" />
            </Array>
          </mxGeometry>
        </mxCell>
        <mxCell id="CO2k6fpoZU8UBYYneDxK-55" value="0..n" style="edgeLabel;resizable=0;html=1;align=left;verticalAlign=top;rounded=1;" connectable="0" vertex="1" parent="CO2k6fpoZU8UBYYneDxK-54">
          <mxGeometry x="-1" relative="1" as="geometry" />
        </mxCell>
        <mxCell id="CO2k6fpoZU8UBYYneDxK-56" value="1" style="edgeLabel;resizable=0;html=1;align=right;verticalAlign=top;rounded=1;" connectable="0" vertex="1" parent="CO2k6fpoZU8UBYYneDxK-54">
          <mxGeometry x="1" relative="1" as="geometry">
            <mxPoint x="10" as="offset" />
          </mxGeometry>
        </mxCell>
        <mxCell id="CO2k6fpoZU8UBYYneDxK-57" value="" style="endArrow=open;html=1;endSize=12;startArrow=diamondThin;startSize=14;startFill=0;edgeStyle=orthogonalEdgeStyle;rounded=1;entryX=0;entryY=0.5;entryDx=0;entryDy=0;exitX=1;exitY=0.5;exitDx=0;exitDy=0;" edge="1" parent="1" source="CO2k6fpoZU8UBYYneDxK-60" target="CO2k6fpoZU8UBYYneDxK-18">
          <mxGeometry x="-0.031" relative="1" as="geometry">
            <mxPoint x="630" y="570" as="sourcePoint" />
            <mxPoint x="570" y="310" as="targetPoint" />
            <Array as="points">
              <mxPoint x="640" y="557" />
              <mxPoint x="640" y="410" />
              <mxPoint x="550" y="410" />
              <mxPoint x="550" y="309" />
            </Array>
            <mxPoint as="offset" />
          </mxGeometry>
        </mxCell>
        <mxCell id="CO2k6fpoZU8UBYYneDxK-58" value="0..n" style="edgeLabel;resizable=0;html=1;align=left;verticalAlign=top;rounded=1;" connectable="0" vertex="1" parent="CO2k6fpoZU8UBYYneDxK-57">
          <mxGeometry x="-1" relative="1" as="geometry">
            <mxPoint y="3" as="offset" />
          </mxGeometry>
        </mxCell>
        <mxCell id="CO2k6fpoZU8UBYYneDxK-59" value="1" style="edgeLabel;resizable=0;html=1;align=right;verticalAlign=top;rounded=1;" connectable="0" vertex="1" parent="CO2k6fpoZU8UBYYneDxK-57">
          <mxGeometry x="1" relative="1" as="geometry">
            <mxPoint x="-10" as="offset" />
          </mxGeometry>
        </mxCell>
      </root>
    </mxGraphModel>
  </diagram>
</mxfile>
